<?xml version="1.0" encoding="iso-8859-1"?>
<!-- Generator: Adobe Illustrator 19.0.0, SVG Export Plug-In . SVG Version: 6.00 Build 0)  -->
<svg version="1.1" id="Layer_1" xmlns="http://www.w3.org/2000/svg" xmlns:xlink="http://www.w3.org/1999/xlink" x="0px" y="0px"
	 viewBox="0 0 297 297" style="enable-background:new 0 0 297 297;" xml:space="preserve">
<g>
	<g>
		<g>
			<circle style="fill:#C63C22;" cx="148.5" cy="148.5" r="148.5"/>
		</g>
	</g>
	<g>
		<path style="fill:#F4AF30;" d="M145.042,82.5h6.917c2.646,0,4.792-2.145,4.792-4.791V54.292c0-2.646-2.145-4.792-4.792-4.792
			h-6.917c-2.646,0-4.792,2.145-4.792,4.792v23.417C140.25,80.355,142.395,82.5,145.042,82.5z"/>
	</g>
	<g>
		<path style="fill:#F0DEB4;" d="M139.5,39c0-4.971,4.029-18,9-18s9,13.029,9,18s-4.029,9-9,9S139.5,43.971,139.5,39z"/>
	</g>
	<g>
		<path style="fill:#E89D25;" d="M151.959,49.5h-3.792v33h3.792c2.646,0,4.792-2.145,4.792-4.792V54.292
			C156.75,51.645,154.605,49.5,151.959,49.5z"/>
	</g>
	<g>
		<path style="fill:#E8D1A3;" d="M148.5,21c-0.112,0-0.222,0.014-0.333,0.027v26.956C148.278,47.987,148.388,48,148.5,48
			c4.971,0,9-4.029,9-9S153.471,21,148.5,21z"/>
	</g>
	<path style="fill:#A0251F;" d="M208.477,84.895L34.94,228.062l58.312,58.312C110.331,293.224,128.973,297,148.5,297
		c74.16,0,135.618-54.362,146.71-125.41L208.477,84.895z"/>
	<g>
		<path style="fill:#EDB7AB;" d="M49.5,214.5h198v-61.917c0-11.368-9.215-20.583-20.583-20.583H70.083
			c-11.368,0-20.583,9.215-20.583,20.583V214.5z"/>
	</g>
	<g>
		<path style="fill:#ECF0F1;" d="M83.476,132h130.047V98.397c0-11.368-9.215-20.583-20.583-20.583h-88.88
			c-11.368,0-20.583,9.215-20.583,20.583L83.476,132L83.476,132z"/>
	</g>
	<g>
		<path style="fill:#D39990;" d="M247.5,152.583c0-11.368-9.215-20.583-20.583-20.583h-78.75v82.5H247.5V152.583z"/>
	</g>
	<g>
		<path style="fill:#D5DEE0;" d="M213.524,98.397c0-11.368-9.215-20.583-20.583-20.583h-44.773V132h65.357V98.397H213.524z"/>
	</g>
	<g>
		<circle style="fill:#EF717A;" cx="81.048" cy="180.048" r="15.048"/>
	</g>
	<g>
		<circle style="fill:#EF717A;" cx="126.192" cy="180.048" r="15.048"/>
	</g>
	<g>
		<circle style="fill:#D95459;" cx="171.336" cy="180.048" r="15.048"/>
	</g>
	<g>
		<circle style="fill:#D95459;" cx="216.48" cy="180.048" r="15.048"/>
	</g>
	<g>
		<g>
			<circle style="fill:#E2B5D2;" cx="97.133" cy="101.291" r="4.633"/>
		</g>
		<g>
			<circle style="fill:#E2B5D2;" cx="111.809" cy="101.291" r="4.633"/>
		</g>
		<g>
			<circle style="fill:#E2B5D2;" cx="126.486" cy="101.291" r="4.633"/>
		</g>
		<g>
			<circle style="fill:#E2B5D2;" cx="141.162" cy="101.291" r="4.633"/>
		</g>
		<g>
			<circle style="fill:#D39FC3;" cx="155.838" cy="101.291" r="4.633"/>
		</g>
		<g>
			<circle style="fill:#D39FC3;" cx="170.514" cy="101.291" r="4.633"/>
		</g>
		<g>
			<circle style="fill:#D39FC3;" cx="185.191" cy="101.291" r="4.633"/>
		</g>
		<g>
			<circle style="fill:#D39FC3;" cx="199.867" cy="101.291" r="4.633"/>
		</g>
	</g>
	<g>
		<path style="fill:#5B5869;" d="M41.25,231h214.5c4.556,0,8.25-3.694,8.25-8.25l0,0c0-4.556-3.694-8.25-8.25-8.25H41.25
			c-4.556,0-8.25,3.694-8.25,8.25l0,0C33,227.306,36.694,231,41.25,231z"/>
	</g>
	<g>
		<path style="fill:#4F4D5E;" d="M255.75,214.5H148.167V231H255.75c4.556,0,8.25-3.694,8.25-8.25S260.306,214.5,255.75,214.5z"/>
	</g>
</g>
<g>
</g>
<g>
</g>
<g>
</g>
<g>
</g>
<g>
</g>
<g>
</g>
<g>
</g>
<g>
</g>
<g>
</g>
<g>
</g>
<g>
</g>
<g>
</g>
<g>
</g>
<g>
</g>
<g>
</g>
</svg>
