<?xml version="1.0" encoding="iso-8859-1"?>
<!-- Generator: Adobe Illustrator 19.0.0, SVG Export Plug-In . SVG Version: 6.00 Build 0)  -->
<svg version="1.1" id="Layer_1" xmlns="http://www.w3.org/2000/svg" xmlns:xlink="http://www.w3.org/1999/xlink" x="0px" y="0px"
	 viewBox="0 0 297 297" style="enable-background:new 0 0 297 297;" xml:space="preserve">
<g>
	<g>
		<g>
			<circle style="fill:#B85627;" cx="148.5" cy="148.5" r="148.5"/>
		</g>
	</g>
	<path style="fill:#933615;" d="M257.752,123.437c-14.798,11.396-32.273,17.267-51.252,21.063c-5,1-6,6-9,11c-6,8-15,11-20,18
		c-18,22-26,46-45,67c-3,3,0,10-2,15c-0.887,2.218-1.899,3.189-3.486,4.708l35.048,36.17
		c71.015-6.431,127.593-62.85,134.269-133.794L257.752,123.437z"/>
	<g>
		<path style="fill:#F0C082;" d="M140.217,241.09l0.15-0.15c4.626,4.51,12.029,4.48,16.612-0.102
			c4.582-4.582,4.612-11.985,0.102-16.612l0.124-0.124c4.626,4.51,12.029,4.48,16.612-0.102c4.582-4.582,4.612-11.985,0.102-16.612
			l0.125-0.125c4.626,4.51,12.029,4.48,16.611-0.102s4.612-11.985,0.102-16.611l0.125-0.125c4.626,4.51,12.029,4.48,16.612-0.102
			c4.582-4.582,4.612-11.985,0.102-16.612l0.124-0.124c4.626,4.51,12.03,4.48,16.612-0.102s4.612-11.985,0.102-16.612l0.125-0.125
			c4.626,4.51,12.029,4.48,16.611-0.102c4.204-4.204,4.568-10.779,1.118-15.41c4.633,3.494,11.245,3.144,15.465-1.077
			c4.618-4.618,4.618-12.106,0-16.724c-4.618-4.618-12.106-4.618-16.724,0c-0.054,0.054-0.099,0.113-0.152,0.168l-0.13-0.13
			c0.055-0.053,0.114-0.098,0.168-0.152c4.618-4.618,4.618-12.106,0-16.724s-12.106-4.618-16.724,0
			c-0.054,0.054-0.099,0.113-0.152,0.168l-0.13-0.13c0.055-0.053,0.114-0.098,0.168-0.152c4.618-4.618,4.618-12.106,0-16.724
			s-12.106-4.618-16.724,0c-0.054,0.054-0.099,0.113-0.152,0.168l-0.13-0.13c0.055-0.053,0.114-0.098,0.168-0.152
			c4.618-4.618,4.618-12.106,0-16.724s-12.106-4.618-16.724,0c-0.054,0.054-0.099,0.113-0.152,0.168l-0.13-0.13
			c0.055-0.053,0.114-0.098,0.168-0.152c4.618-4.618,4.618-12.106,0-16.724s-12.106-4.618-16.724,0
			c-0.054,0.054-0.099,0.113-0.152,0.168l-0.13-0.13c0.055-0.053,0.114-0.098,0.168-0.152c4.618-4.618,4.618-12.106,0-16.724
			s-12.106-4.618-16.724,0c-4.212,4.212-4.57,10.806-1.097,15.438c-4.632-3.472-11.225-3.115-15.438,1.097
			c-4.598,4.598-4.615,12.039-0.056,16.662l-0.12,0.12c-4.623-4.559-12.064-4.542-16.662,0.056
			c-4.598,4.598-4.615,12.039-0.056,16.662l-0.12,0.12c-4.623-4.559-12.064-4.542-16.662,0.056s-4.615,12.039-0.056,16.662
			l-0.12,0.12c-4.623-4.559-12.064-4.542-16.662,0.056s-4.615,12.039-0.056,16.662l-0.12,0.12
			c-4.623-4.559-12.064-4.542-16.662,0.056s-4.615,12.039-0.056,16.662l-0.12,0.12c-4.623-4.559-12.064-4.542-16.662,0.056
			c-4.598,4.598-4.615,12.039-0.056,16.662l-0.148,0.148c-4.623-4.559-12.064-4.542-16.662,0.056
			c-4.618,4.618-4.618,12.106,0,16.724s12.106,4.618,16.724,0c0.024-0.024,0.044-0.05,0.068-0.075l0.121,0.121
			c-0.024,0.024-0.051,0.044-0.075,0.068c-4.618,4.618-4.618,12.106,0,16.724s12.106,4.618,16.724,0
			c0.024-0.024,0.044-0.05,0.068-0.075l0.121,0.121c-0.024,0.024-0.051,0.044-0.075,0.068c-4.618,4.618-4.618,12.106,0,16.724
			s12.106,4.618,16.724,0c0.024-0.024,0.044-0.05,0.068-0.075l0.121,0.121c-0.024,0.024-0.051,0.044-0.075,0.068
			c-4.618,4.618-4.618,12.106,0,16.724s12.106,4.618,16.724,0c0.024-0.024,0.044-0.05,0.068-0.075l0.121,0.121
			c-0.024,0.024-0.051,0.044-0.075,0.068c-4.618,4.618-4.618,12.106,0,16.724s12.106,4.618,16.724,0
			c0.024-0.024,0.044-0.05,0.068-0.075l0.121,0.121c-0.024,0.024-0.051,0.044-0.075,0.068c-4.618,4.618-4.618,12.106,0,16.724
			s12.106,4.618,16.724,0C144.76,253.154,144.776,245.713,140.217,241.09z"/>
	</g>
	<g>
		<path style="fill:#D3A26C;" d="M257.752,123.437c-4.618-4.618-12.106-4.618-16.724,0c-0.054,0.054-0.099,0.113-0.152,0.168
			l-0.13-0.13c0.055-0.052,0.114-0.098,0.168-0.151c4.618-4.619,4.618-12.106,0-16.724c-4.618-4.618-12.106-4.618-16.724,0
			c-0.054,0.054-0.099,0.113-0.152,0.168l-0.13-0.13c0.055-0.053,0.114-0.098,0.168-0.152c4.618-4.618,4.618-12.106,0-16.724
			c-4.618-4.618-12.106-4.618-16.724,0c-0.054,0.054-0.099,0.113-0.152,0.168l-0.13-0.13c0.055-0.053,0.114-0.098,0.168-0.152
			c4.618-4.618,4.618-12.106,0-16.724c-4.618-4.618-12.106-4.618-16.724,0c-0.054,0.054-0.099,0.113-0.152,0.168l-0.13-0.13
			c0.055-0.053,0.114-0.098,0.168-0.152c4.618-4.618,4.618-12.106,0-16.724s-12.106-4.618-16.724,0
			c-0.054,0.054-0.099,0.113-0.152,0.168l-0.13-0.13c0.055-0.053,0.114-0.098,0.168-0.152c4.618-4.618,4.618-12.106,0-16.724
			s-12.106-4.618-16.724,0c-4.212,4.212-4.57,10.806-1.097,15.438c-2.419-1.813-5.371-2.572-8.241-2.293v191.85
			c3.387,0.322,6.885-0.81,9.479-3.405c4.582-4.582,4.612-11.985,0.102-16.612l0.124-0.124c4.626,4.51,12.029,4.48,16.612-0.102
			s4.612-11.985,0.102-16.611l0.125-0.125c4.626,4.51,12.029,4.48,16.612-0.102s4.612-11.985,0.102-16.612l0.125-0.125
			c4.626,4.51,12.029,4.48,16.612-0.102s4.612-11.985,0.102-16.612l0.124-0.124c4.626,4.51,12.03,4.48,16.612-0.102
			s4.612-11.985,0.102-16.612l0.125-0.125c4.626,4.51,12.029,4.48,16.611-0.102c4.204-4.204,4.568-10.779,1.118-15.41
			c4.633,3.494,11.245,3.144,15.465-1.077C262.371,135.543,262.371,128.056,257.752,123.437z"/>
	</g>
	<g>
		<circle style="fill:#503B2C;" cx="166.703" cy="88.143" r="4.065"/>
	</g>
	<g>
		<circle style="fill:#503B2C;" cx="187.78" cy="109.22" r="4.065"/>
	</g>
	<g>
		<circle style="fill:#503B2C;" cx="211.731" cy="133.171" r="4.065"/>
	</g>
	<g>
		<circle style="fill:#503B2C;" cx="140.836" cy="114.01" r="4.065"/>
	</g>
	<g>
		<circle style="fill:#503B2C;" cx="161.913" cy="135.087" r="4.065"/>
	</g>
	<g>
		<circle style="fill:#503B2C;" cx="185.864" cy="159.039" r="4.065"/>
	</g>
	<g>
		<circle style="fill:#503B2C;" cx="114.01" cy="140.836" r="4.065"/>
	</g>
	<g>
		<circle style="fill:#503B2C;" cx="135.087" cy="161.913" r="4.065"/>
	</g>
	<g>
		<circle style="fill:#503B2C;" cx="159.038" cy="185.864" r="4.065"/>
	</g>
	<g>
		<circle style="fill:#503B2C;" cx="88.143" cy="166.703" r="4.065"/>
	</g>
	<g>
		<circle style="fill:#503B2C;" cx="109.22" cy="187.78" r="4.065"/>
	</g>
	<g>
		<circle style="fill:#503B2C;" cx="133.171" cy="211.731" r="4.065"/>
	</g>
</g>
<g>
</g>
<g>
</g>
<g>
</g>
<g>
</g>
<g>
</g>
<g>
</g>
<g>
</g>
<g>
</g>
<g>
</g>
<g>
</g>
<g>
</g>
<g>
</g>
<g>
</g>
<g>
</g>
<g>
</g>
</svg>
