<?xml version="1.0" encoding="iso-8859-1"?>
<!-- Generator: Adobe Illustrator 19.0.0, SVG Export Plug-In . SVG Version: 6.00 Build 0)  -->
<svg version="1.1" id="Layer_1" xmlns="http://www.w3.org/2000/svg" xmlns:xlink="http://www.w3.org/1999/xlink" x="0px" y="0px"
	 viewBox="0 0 297 297" style="enable-background:new 0 0 297 297;" xml:space="preserve">
<g>
	<g>
		<g>
			<circle style="fill:#FFA800;" cx="148.5" cy="148.5" r="148.5"/>
		</g>
	</g>
	<path style="fill:#D18600;" d="M296.964,145.654l-95.199-95.199L46.587,205.685l90.91,90.909C141.13,296.86,144.799,297,148.5,297
		c82.014,0,148.5-66.486,148.5-148.5C297,147.549,296.982,146.602,296.964,145.654z"/>
	<g>
		<path style="fill:#32373B;" d="M57.875,210.337c-4.097,0-8.194-1.56-11.313-4.678c-6.238-6.239-6.237-16.39,0-22.627
			c3.021-3.022,7.04-4.687,11.313-4.687c3.081,0,6.03,0.865,8.568,2.481L196.815,50.455c1.367-1.367,3.582-1.367,4.949,0
			c1.367,1.366,1.367,3.583,0,4.949L69.188,187.981c-0.656,0.656-1.547,1.025-2.475,1.025l0,0c-0.929,0-1.818-0.369-2.476-1.025
			c-1.699-1.7-3.959-2.636-6.362-2.636c-2.404,0-4.664,0.936-6.364,2.636c-3.508,3.509-3.508,9.218,0.001,12.728
			c3.508,3.508,9.217,3.508,12.727,0c1.367-1.367,3.582-1.367,4.949,0c1.367,1.366,1.367,3.583,0,4.949
			C66.069,208.777,61.972,210.337,57.875,210.337z"/>
	</g>
	<g>
		<path style="fill:#32373B;" d="M110.905,263.375c-4.273,0-8.291-1.664-11.313-4.687c-3.021-3.021-4.686-7.039-4.686-11.313
			s1.664-8.292,4.687-11.313c5.387-5.389,13.693-6.124,19.879-2.202l130.374-130.375c1.367-1.367,3.582-1.367,4.949,0
			c1.367,1.366,1.367,3.583,0,4.949L122.219,241.012c-1.365,1.367-3.582,1.366-4.949,0.001c-3.51-3.51-9.218-3.509-12.728-0.001
			c-1.7,1.7-2.636,3.96-2.636,6.364c0,2.403,0.936,4.663,2.636,6.362c1.7,1.701,3.96,2.637,6.363,2.637
			c2.404,0,4.664-0.936,6.364-2.636c1.367-1.367,3.582-1.367,4.949,0c1.367,1.366,1.367,3.583,0,4.949
			C119.197,261.711,115.179,263.375,110.905,263.375z"/>
	</g>
	<g>
		<circle style="fill:#C63C22;" cx="155.098" cy="97.122" r="24.999"/>
	</g>
	<g>
		<circle style="fill:#C63C22;" cx="107.691" cy="144.528" r="24.999"/>
	</g>
	<g>
		<path style="fill:#662621;" d="M106.406,110.46c9.763-9.763,25.591-9.763,35.354,0s9.763,25.591,0,35.354
			s-7.914-7.914-17.677-17.677S96.643,120.222,106.406,110.46z"/>
	</g>
	<g>
		<path style="fill:#662621;" d="M62.214,154.652c9.763-9.763,25.591-9.763,35.354,0s9.763,25.591,0,35.354
			s-7.914-7.914-17.677-17.677S52.451,164.415,62.214,154.652z"/>
	</g>
	<g>
		<path style="fill:#6AAC4B;" d="M217.684,153.36l-12.763-12.763c-1.357-1.357-1.357-3.557,0-4.914l6.335-6.335
			c1.357-1.357,3.557-1.357,4.914,0l12.763,12.763c1.357,1.357,1.357,3.557,0,4.914l-6.335,6.335
			C221.241,154.717,219.041,154.717,217.684,153.36z"/>
	</g>
	<g>
		<path style="fill:#602522;" d="M203.629,119.298c9.763-9.763,25.591-9.763,35.354,0s9.763,25.591,0,35.354
			s-7.914-7.914-17.677-17.677S193.866,129.061,203.629,119.298z"/>
	</g>
	<g>
		<path style="fill:#345F41;" d="M197.683,177.552l-16.954-16.954c-1.531-1.531-1.531-4.013,0-5.544l5.705-5.705
			c1.531-1.531,4.013-1.531,5.544,0l16.954,16.954c1.531,1.531,1.531,4.013,0,5.544l-5.705,5.705
			C201.696,179.083,199.214,179.083,197.683,177.552z"/>
	</g>
	<g>
		<path style="fill:#602522;" d="M181.533,141.394c9.763-9.763,25.591-9.763,35.354,0s9.763,25.591,0,35.354
			s-7.914-7.914-17.677-17.677C189.447,149.309,171.77,151.157,181.533,141.394z"/>
	</g>
	<g>
		<path style="fill:#6AAC4B;" d="M173.492,197.553l-12.763-12.763c-1.357-1.357-1.357-3.557,0-4.914l6.335-6.335
			c1.357-1.357,3.557-1.357,4.914,0l12.763,12.763c1.357,1.357,1.357,3.557,0,4.914l-6.335,6.335
			C177.049,198.909,174.848,198.909,173.492,197.553z"/>
	</g>
	<g>
		<path style="fill:#602522;" d="M159.437,163.491c9.763-9.763,25.591-9.763,35.354,0s9.763,25.591,0,35.354
			s-7.914-7.914-17.677-17.677S149.674,173.253,159.437,163.491z"/>
	</g>
	<g>
		<path style="fill:#345F41;" d="M152.09,220.343l-14.151-14.151c-1.417-1.417-1.417-3.715,0-5.132l6.116-6.117
			c1.417-1.417,3.715-1.417,5.132,0l14.151,14.151c1.417,1.417,1.417,3.715,0,5.132l-6.117,6.117
			C155.805,221.76,153.507,221.76,152.09,220.343z"/>
	</g>
	<g>
		<path style="fill:#79302A;" d="M137.341,185.587c9.763-9.763,25.591-9.763,35.354,0s9.763,25.591,0,35.354
			s-7.914-7.914-17.677-17.677S127.578,195.349,137.341,185.587z"/>
	</g>
	<g>
		<path style="fill:#79302A;" d="M115.244,207.683c9.763-9.763,25.591-9.763,35.354,0s9.763,25.591,0,35.354
			s-7.914-7.914-17.677-17.677C123.159,215.597,105.482,217.446,115.244,207.683z"/>
	</g>
	<g>
		<path style="fill:#B52C1A;" d="M172.775,79.445c-6.663-6.663-16.15-8.775-24.608-6.343v48.039
			c8.457,2.432,17.945,0.32,24.608-6.343C182.537,105.036,182.537,89.208,172.775,79.445z"/>
	</g>
	<g>
		<path style="fill:#602522;" d="M172.694,185.587c-6.642-6.642-16.09-8.76-24.527-6.365v19.227c2.414,1.239,4.806,2.771,6.85,4.815
			c9.763,9.763,7.914,27.439,17.677,17.677C182.457,211.178,182.457,195.349,172.694,185.587z"/>
	</g>
	<g>
		<path style="fill:#602522;" d="M150.598,207.683c-0.773-0.773-1.588-1.478-2.431-2.129v39.515
			c0.723-0.462,1.527-1.128,2.431-2.032C160.361,233.274,160.361,217.446,150.598,207.683z"/>
	</g>
	<g>
		<path style="fill:#662621;" d="M154.053,62.812c9.763-9.763,25.591-9.763,35.354,0s9.763,25.591,0,35.354
			s-7.914-7.914-17.677-17.677S144.29,72.575,154.053,62.812z"/>
	</g>
</g>
<g>
</g>
<g>
</g>
<g>
</g>
<g>
</g>
<g>
</g>
<g>
</g>
<g>
</g>
<g>
</g>
<g>
</g>
<g>
</g>
<g>
</g>
<g>
</g>
<g>
</g>
<g>
</g>
<g>
</g>
</svg>
