<?xml version="1.0" encoding="iso-8859-1"?>
<!-- Generator: Adobe Illustrator 19.0.0, SVG Export Plug-In . SVG Version: 6.00 Build 0)  -->
<svg version="1.1" id="Layer_1" xmlns="http://www.w3.org/2000/svg" xmlns:xlink="http://www.w3.org/1999/xlink" x="0px" y="0px"
	 viewBox="0 0 297.001 297.001" style="enable-background:new 0 0 297.001 297.001;" xml:space="preserve">
<g>
	<g>
		<g>
			<circle style="fill:#AE9676;" cx="148.501" cy="148.5" r="148.5"/>
		</g>
	</g>
	<path style="fill:#897256;" d="M296.615,137.838L211.129,52.35L84.88,243.76l52.849,52.849c3.558,0.255,7.149,0.392,10.772,0.392
		c82.014,0,148.5-66.486,148.5-148.5C297,144.914,296.865,141.36,296.615,137.838z"/>
	<g>
		<path style="fill:#634A39;" d="M92.835,247.5h111.333c5.707,0,10.333-4.626,10.333-10.333V59.834
			c0-5.707-4.626-10.333-10.333-10.333H92.835c-5.707,0-10.333,4.626-10.333,10.333v177.333
			C82.501,242.874,87.127,247.5,92.835,247.5z"/>
	</g>
	<g>
		<path style="fill:#543F31;" d="M204.168,49.5h-56v198h56c5.707,0,10.333-4.626,10.333-10.333V59.834
			C214.501,54.126,209.874,49.5,204.168,49.5z"/>
	</g>
	<g>
		<rect x="112.501" y="49.5" style="fill:#4C2F15;" width="6" height="66"/>
	</g>
	<g>
		<rect x="145.501" y="49.5" style="fill:#4C2F15;" width="6" height="82.5"/>
	</g>
	<g>
		<rect x="178.501" y="49.5" style="fill:#4C2F15;" width="6" height="82.5"/>
	</g>
	<g>
		<rect x="82.501" y="79.5" style="fill:#4C2F15;" width="132" height="6"/>
	</g>
	<g>
		<rect x="82.501" y="112.5" style="fill:#4C2F15;" width="132" height="6"/>
	</g>
	<g>
		<path style="fill:#79302A;" d="M82.501,104.119v133.048c0,5.707,4.626,10.333,10.333,10.333h111.333
			c5.707,0,10.333-4.626,10.333-10.333V133.332L82.501,104.119z"/>
	</g>
	<g>
		<path style="fill:#6D2925;" d="M148.168,118.652V247.5h56c5.707,0,10.333-4.626,10.333-10.333V133.332L148.168,118.652z"/>
	</g>
	<g>
		<rect x="115.501" y="181.5" style="fill:#B85627;" width="66" height="33"/>
	</g>
	<g>
		<rect x="148.168" y="181.5" style="fill:#AA4922;" width="33.333" height="33"/>
	</g>
</g>
<g>
</g>
<g>
</g>
<g>
</g>
<g>
</g>
<g>
</g>
<g>
</g>
<g>
</g>
<g>
</g>
<g>
</g>
<g>
</g>
<g>
</g>
<g>
</g>
<g>
</g>
<g>
</g>
<g>
</g>
</svg>
