<?xml version="1.0" encoding="iso-8859-1"?>
<!-- Generator: Adobe Illustrator 19.0.0, SVG Export Plug-In . SVG Version: 6.00 Build 0)  -->
<svg version="1.1" id="Layer_1" xmlns="http://www.w3.org/2000/svg" xmlns:xlink="http://www.w3.org/1999/xlink" x="0px" y="0px"
	 viewBox="0 0 297 297" style="enable-background:new 0 0 297 297;" xml:space="preserve">
<g>
	<g>
		<g>
			<circle style="fill:#F4AF30;" cx="148.5" cy="148.5" r="148.5"/>
		</g>
	</g>
	<path style="fill:#D18600;" d="M296.612,137.78l-66.613-66.613L72.668,228.499l68.313,68.313c2.491,0.124,4.998,0.188,7.519,0.188
		c82.014,0,148.5-66.486,148.5-148.5C297,144.895,296.864,141.321,296.612,137.78z"/>
	<g>
		
			<rect x="190.686" y="66.067" transform="matrix(0.7071 0.7071 -0.7071 0.7071 117.1264 -135.1353)" style="fill:#8E725E;" width="61.999" height="15.5"/>
	</g>
	<g>
		
			<rect x="44.314" y="212.437" transform="matrix(0.7071 0.7071 -0.7071 0.7071 177.7544 11.2366)" style="fill:#8E725E;" width="61.999" height="15.5"/>
	</g>
	<g>
		<path style="fill:#5E4534;" d="M58.433,196.94l40.126,40.126c1.807,1.807,4.736,1.807,6.543,0l133.464-133.463
			c1.807-1.807,1.807-4.736,0-6.543L198.44,56.934c-1.807-1.807-4.736-1.807-6.543,0L58.433,190.397
			C56.626,192.204,56.626,195.133,58.433,196.94z"/>
	</g>
	<g>
		<path style="fill:#503B2C;" d="M238.566,97.059L198.44,56.933c-1.807-1.807-4.736-1.807-6.543,0L147.5,101.33v93.338
			l91.066-91.066C240.373,101.795,240.373,98.866,238.566,97.059z"/>
	</g>
	<g>
		<polygon style="fill:#C0392B;" points="232.881,109.288 116.208,132.622 80.499,168.331 197.172,144.996 		"/>
	</g>
	<g>
		<path style="fill:#935733;" d="M197.172,144.996L80.499,168.331l-21.331,21.331c-2.213,2.213-2.811,5.203-1.336,6.678l3.771,3.771
			l100.566-20.113L197.172,144.996z"/>
	</g>
	<g>
		<polygon style="fill:#9E2D28;" points="232.881,109.288 147.5,126.364 147.5,154.931 197.172,144.996 		"/>
	</g>
	<g>
		<polygon style="fill:#794C2B;" points="197.172,144.996 147.5,154.931 147.5,182.932 162.17,179.998 		"/>
	</g>
</g>
<g>
</g>
<g>
</g>
<g>
</g>
<g>
</g>
<g>
</g>
<g>
</g>
<g>
</g>
<g>
</g>
<g>
</g>
<g>
</g>
<g>
</g>
<g>
</g>
<g>
</g>
<g>
</g>
<g>
</g>
</svg>
