<?xml version="1.0" encoding="iso-8859-1"?>
<!-- Generator: Adobe Illustrator 19.0.0, SVG Export Plug-In . SVG Version: 6.00 Build 0)  -->
<svg version="1.1" id="Layer_1" xmlns="http://www.w3.org/2000/svg" xmlns:xlink="http://www.w3.org/1999/xlink" x="0px" y="0px"
	 viewBox="0 0 297.001 297.001" style="enable-background:new 0 0 297.001 297.001;" xml:space="preserve">
<g>
	<g>
		<g>
			<circle style="fill:#345065;" cx="148.5" cy="148.5" r="148.5"/>
		</g>
	</g>
	<path style="fill:#2C3E50;" d="M296.947,144.553l-47.583-47.541c-2.454,1.602-4.487,3.083-6.864,2.488c-35-6-79-9-93,28
		c-13,31-11,69-39,93c-10.318,9.38-25.915,2.923-39.363,6.213l70.109,70.109c2.404,0.116,4.822,0.178,7.255,0.178
		c82.014,0,148.5-66.486,148.5-148.5C297,147.18,296.981,145.864,296.947,144.553z"/>
	<g>
		<path style="fill:#AEC1CF;" d="M193.506,174.229c-0.1,0-0.196-0.001-0.296-0.001c-10.204-0.057-14.873-4.405-16.993-8.044
			c-6.628-11.374,3.237-29.013,11.941-44.575c2.914-5.209,5.666-10.129,6.513-12.735l0,0c2.674-8.229,8.393-14.924,16.102-18.852
			c7.711-3.928,16.49-4.617,24.716-1.945c16.988,5.52,26.317,23.83,20.798,40.817C250.984,145.21,225.497,174.229,193.506,174.229z
			 M207.985,113.199c-1.271,3.914-4.208,9.164-7.608,15.243c-3.546,6.341-7.565,13.527-10.059,19.874
			c-3.308,8.422-2.06,10.725-2.005,10.818c0.161,0.277,1.422,1.073,4.975,1.093c0.074,0.001,0.149,0.001,0.224,0.001
			c26.226,0.001,46.259-25.81,49.46-35.661c3.134-9.646-2.164-20.042-11.81-23.177c-4.672-1.517-9.656-1.126-14.033,1.104
			C212.751,104.726,209.504,108.527,207.985,113.199L207.985,113.199z"/>
	</g>
	<g>
		<path style="fill:#FFFFFF;" d="M217.257,82.5H55.844c0,0-5.372,54.367,32.23,96.689c12.427,13.987,20.158,27.528,24.942,39.392
			h47.07c4.785-11.864,12.515-25.405,24.942-39.392C222.629,136.867,217.257,82.5,217.257,82.5z"/>
	</g>
	<g>
		<path style="fill:#D4DADD;" d="M217.257,82.5h-79.09v136.08h21.918c4.785-11.864,12.515-25.405,24.942-39.392
			C222.629,136.867,217.257,82.5,217.257,82.5z"/>
	</g>
	<g>
		<path style="fill:#D0D5D9;" d="M78.8,231.25h115.5c9.113,0,16.5-7.387,16.5-16.5l0,0H62.3l0,0
			C62.3,223.863,69.688,231.25,78.8,231.25z"/>
	</g>
	<g>
		<path style="fill:#BFC2C4;" d="M138.167,214.75v16.5H194.3c9.113,0,16.5-7.387,16.5-16.5H138.167z"/>
	</g>
</g>
<g>
</g>
<g>
</g>
<g>
</g>
<g>
</g>
<g>
</g>
<g>
</g>
<g>
</g>
<g>
</g>
<g>
</g>
<g>
</g>
<g>
</g>
<g>
</g>
<g>
</g>
<g>
</g>
<g>
</g>
</svg>
