<?xml version="1.0" encoding="iso-8859-1"?>
<!-- Generator: Adobe Illustrator 19.0.0, SVG Export Plug-In . SVG Version: 6.00 Build 0)  -->
<svg version="1.1" id="Layer_1" xmlns="http://www.w3.org/2000/svg" xmlns:xlink="http://www.w3.org/1999/xlink" x="0px" y="0px"
	 viewBox="0 0 297 297" style="enable-background:new 0 0 297 297;" xml:space="preserve">
<g>
	<g>
		<g>
			<circle style="fill:#4F2B4F;" cx="148.5" cy="148.5" r="148.5"/>
		</g>
	</g>
	<path style="fill:#462147;" d="M212.515,84.187L169.908,127.2c5.154,5.436,8.352,12.813,8.71,20.8
		c0.724,16.175-14.284,29.951-29.951,29.951c-8.193,0-15.343-3.273-20.607-8.505L84.8,213.118l82.679,82.679
		c66.84-8.527,119.797-61.486,128.32-128.327L212.515,84.187z"/>
	<g>
		<path style="fill:#F0C082;" d="M148.5,57.75c-50.12,0-90.75,40.63-90.75,90.75s40.63,90.75,90.75,90.75s90.75-40.63,90.75-90.75
			S198.62,57.75,148.5,57.75z M148.5,173.25c-13.669,0-24.75-11.081-24.75-24.75s11.081-24.75,24.75-24.75s24.75,11.081,24.75,24.75
			S162.169,173.25,148.5,173.25z"/>
	</g>
	<g>
		<path style="fill:#D3A471;" d="M239.25,148.5c0-49.897-40.271-90.382-90.083-90.742v66.009
			c13.36,0.354,24.083,11.288,24.083,24.733s-10.723,24.379-24.083,24.733v66.009C198.979,238.882,239.25,198.397,239.25,148.5z"/>
		<path style="fill:#F0C082;" d="M148.5,173.25c-13.669,0-24.75-11.081-24.75-24.75s11.081-24.75,24.75-24.75
			c0.224,0,0.445,0.011,0.667,0.017V57.758c-0.223-0.001-0.444-0.008-0.667-0.008c-50.12,0-90.75,40.63-90.75,90.75
			s40.63,90.75,90.75,90.75c0.223,0,0.444-0.007,0.667-0.008v-66.009C148.945,173.239,148.724,173.25,148.5,173.25z"/>
	</g>
	<g>
		<path style="fill:#F36E81;" d="M91.5,163.5c9.834-15.833,20.104-18.378,32.272-15.859c0.454-13.27,11.347-23.891,24.728-23.891
			c13.669,0,24.75,11.081,24.75,24.75c0,2.968-0.524,5.813-1.481,8.45c12.566,16.693,34.743,9.836,50.731-1.45
			c4.29-3.064,10.457-4.239,16.661-3.087c0.055-1.298,0.089-2.601,0.089-3.913c0-50.12-40.63-90.75-90.75-90.75
			c-49.836,0-90.283,40.174-90.739,89.903c8.747,3.515,15.801,11.422,23.739,17.847C85,168.333,88.324,168.614,91.5,163.5z"/>
	</g>
	<g>
		<path style="fill:#F36E81;" d="M148.5,57.75c-49.836,0-90.283,40.174-90.739,89.903c8.747,3.515,15.801,11.422,23.739,17.847
			c3.5,2.833,6.824,3.115,10-2c9.834-15.833,20.104-18.378,32.272-15.859c0.454-13.27,11.347-23.891,24.728-23.891
			c0.224,0,0.445,0.011,0.667,0.017V57.758C148.944,57.757,148.723,57.75,148.5,57.75z"/>
		<path style="fill:#DD5B74;" d="M149.167,57.758v66.009c13.36,0.354,24.083,11.288,24.083,24.733c0,2.968-0.524,5.813-1.481,8.45
			c12.566,16.693,34.743,9.836,50.731-1.45c4.29-3.064,10.457-4.239,16.661-3.087c0.055-1.298,0.089-2.601,0.089-3.913
			C239.25,98.603,198.979,58.118,149.167,57.758z"/>
	</g>
	<g>
		<path style="fill:#905835;" d="M102.757,124.757l-4.763,2.75c-1.315,0.759-2.997,0.309-3.757-1.007l0,0
			c-0.759-1.315-0.309-2.997,1.007-3.757l4.763-2.75c1.315-0.759,2.997-0.309,3.757,1.007l0,0
			C104.523,122.315,104.072,123.997,102.757,124.757z"/>
	</g>
	<g>
		<path style="fill:#905835;" d="M146.407,75.948l-0.612,5.465c-0.169,1.509-1.529,2.596-3.039,2.427l0,0
			c-1.509-0.169-2.596-1.529-2.427-3.039l0.612-5.465c0.169-1.509,1.529-2.596,3.039-2.427l0,0
			C145.489,73.078,146.576,74.439,146.407,75.948z"/>
	</g>
	<g>
		<path style="fill:#C63C22;" d="M173.889,104.132l-4.763,2.75c-1.315,0.759-2.997,0.309-3.757-1.007l0,0
			c-0.759-1.315-0.309-2.997,1.007-3.757l4.763-2.75c1.315-0.759,2.997-0.309,3.757,1.007l0,0
			C175.655,101.691,175.204,103.373,173.889,104.132z"/>
	</g>
	<g>
		<path style="fill:#C63C22;" d="M80.374,133.711l-3.769-1.922c-1.041-0.531-1.455-1.801-0.924-2.838l0,0
			c0.53-1.037,1.804-1.447,2.845-0.916l3.769,1.922c1.041,0.531,1.455,1.801,0.924,2.838l0,0
			C82.689,133.831,81.415,134.241,80.374,133.711z"/>
	</g>
	<g>
		<path style="fill:#C63C22;" d="M219.424,131.768l-3.769-1.922c-1.041-0.531-1.455-1.801-0.924-2.838l0,0
			c0.53-1.037,1.804-1.447,2.845-0.916l3.769,1.922c1.041,0.531,1.455,1.801,0.924,2.838l0,0
			C221.739,131.888,220.465,132.299,219.424,131.768z"/>
	</g>
	<g>
		<path style="fill:#FFCD02;" d="M105.223,106.859l-4.824-2.642c-1.332-0.73-1.821-2.401-1.091-3.733l0,0
			c0.73-1.332,2.401-1.821,3.733-1.091l4.824,2.642c1.332,0.73,1.821,2.401,1.091,3.733l0,0
			C108.227,107.1,106.556,107.588,105.223,106.859z"/>
	</g>
	<g>
		<path style="fill:#FFCD02;" d="M138.254,106.805l-4.824-2.642c-1.332-0.73-1.821-2.401-1.091-3.733l0,0
			c0.73-1.332,2.401-1.821,3.733-1.091l4.824,2.642c1.332,0.73,1.821,2.401,1.091,3.733l0,0
			C141.257,107.046,139.586,107.534,138.254,106.805z"/>
	</g>
	<g>
		<path style="fill:#FFCD02;" d="M199.458,137.254l2.522-4.888c0.696-1.35,2.355-1.879,3.704-1.183l0,0
			c1.35,0.696,1.88,2.355,1.183,3.705l-2.522,4.888c-0.696,1.35-2.355,1.879-3.704,1.183l0,0
			C199.291,140.263,198.761,138.604,199.458,137.254z"/>
	</g>
	<g>
		<path style="fill:#ECF0F1;" d="M130.713,119.891l-4.195,3.557c-1.158,0.982-2.894,0.839-3.876-0.319l0,0
			c-0.982-1.158-0.839-2.894,0.319-3.876l4.195-3.557c1.158-0.982,2.894-0.839,3.876,0.319l0,0
			C132.015,117.173,131.872,118.909,130.713,119.891z"/>
	</g>
	<g>
		<path style="fill:#ECF0F1;" d="M180.528,127.791l-4.195,3.557c-1.158,0.982-2.894,0.839-3.876-0.319l0,0
			c-0.982-1.158-0.839-2.894,0.319-3.876l4.195-3.557c1.158-0.982,2.894-0.839,3.876,0.319l0,0
			C181.83,125.073,181.687,126.808,180.528,127.791z"/>
	</g>
	<g>
		<path style="fill:#ECF0F1;" d="M196.75,94.768l-3.894,3.302c-1.075,0.912-2.686,0.779-3.598-0.296l0,0
			c-0.912-1.075-0.779-2.686,0.296-3.598l3.894-3.302c1.075-0.912,2.686-0.779,3.598,0.296l0,0
			C197.958,92.245,197.826,93.856,196.75,94.768z"/>
	</g>
</g>
<g>
</g>
<g>
</g>
<g>
</g>
<g>
</g>
<g>
</g>
<g>
</g>
<g>
</g>
<g>
</g>
<g>
</g>
<g>
</g>
<g>
</g>
<g>
</g>
<g>
</g>
<g>
</g>
<g>
</g>
</svg>
