<?xml version="1.0" encoding="iso-8859-1"?>
<!-- Generator: Adobe Illustrator 19.0.0, SVG Export Plug-In . SVG Version: 6.00 Build 0)  -->
<svg version="1.1" id="Layer_1" xmlns="http://www.w3.org/2000/svg" xmlns:xlink="http://www.w3.org/1999/xlink" x="0px" y="0px"
	 viewBox="0 0 297 297" style="enable-background:new 0 0 297 297;" xml:space="preserve">
<g>
	<g>
		<g>
			<circle style="fill:#5E4534;" cx="148.5" cy="148.5" r="148.5"/>
		</g>
	</g>
	<path style="fill:#503B2C;" d="M235.351,134.351l-190.85,53.548l109.008,109.008c65.372-2.168,120.039-46.581,137.579-106.818
		L235.351,134.351z"/>
	<g>
		<path style="fill:#F9B65F;" d="M184.55,113.5c-39.087,0-83.966,24.306-95.935,42c-4.612-10.233-16.757-28.667-31.015-28.667
			c-18.225,0,0,11.939,0,26.667s-18.225,26.667,0,26.667c14.258,0,19.658-0.563,24.271-10.796
			C93.84,187.065,145.463,193.5,184.55,193.5c32.189,0,51.837-19.964,60.599-31.684c3.695-4.943,3.695-11.689,0-16.632
			C236.387,133.464,216.739,113.5,184.55,113.5z"/>
	</g>
	<g>
		<path style="fill:#E09A46;" d="M245.149,145.184c-8.761-11.72-28.41-31.684-60.599-31.684c-11.956,0-24.451,2.281-36.383,5.945
			v72.265c12.327,1.234,24.896,1.791,36.383,1.791c32.189,0,51.837-19.964,60.599-31.684
			C248.844,156.873,248.844,150.127,245.149,145.184z"/>
	</g>
	<g>
		<path style="fill:#E67E22;" d="M197.181,114.582c-3.976-0.689-8.179-1.082-12.631-1.082c-32.154,0-68.211,16.448-86.659,32.132
			c7.954,4.074,19.172,6.584,34.109,2.868c34.833-8.667,32.5,3.333,49.5,0C191.922,146.457,195.766,128.316,197.181,114.582z"/>
	</g>
	<g>
		<path style="fill:#C15C10;" d="M184.55,113.5c-11.957,0-24.453,2.277-36.383,5.941v26.117c18.471-1.728,19.552,5.645,33.333,2.942
			c10.422-2.043,14.266-20.184,15.681-33.918C193.205,113.893,189.002,113.5,184.55,113.5z"/>
	</g>
	<g>
		<path style="fill:#FFFFFF;" d="M66,196h165c18.225,0,33-14.775,33-33l0,0H33l0,0C33,181.225,47.775,196,66,196z"/>
	</g>
	<g>
		<path style="fill:#E3E5E4;" d="M148.167,163v33H231c18.225,0,33-14.775,33-33H148.167z"/>
	</g>
	<g>
		<circle style="fill:#C15C10;" cx="205.5" cy="144.5" r="4.5"/>
	</g>
	<g>
		<path style="fill:#C0392B;" d="M69.884,164.875c0-10.659,10.211-16.375,22.808-16.375s22.808,5.716,22.808,16.375
			s-10.211,19.299-22.808,19.299S69.884,175.533,69.884,164.875z"/>
	</g>
	<g>
		<path style="fill:#C0392B;" d="M179.123,159.694c0-5.874,5.628-9.024,12.57-9.024s12.57,3.15,12.57,9.024
			c0,5.874-5.628,10.636-12.57,10.636S179.123,165.568,179.123,159.694z"/>
	</g>
	<g>
		<circle style="fill:#59913C;" cx="143.237" cy="159.737" r="5.263"/>
	</g>
	<g>
		<circle style="fill:#59913C;" cx="168.5" cy="159.737" r="5.263"/>
	</g>
	<g>
		<circle style="fill:#2ECC71;" cx="159.737" cy="159.737" r="5.263"/>
	</g>
</g>
<g>
</g>
<g>
</g>
<g>
</g>
<g>
</g>
<g>
</g>
<g>
</g>
<g>
</g>
<g>
</g>
<g>
</g>
<g>
</g>
<g>
</g>
<g>
</g>
<g>
</g>
<g>
</g>
<g>
</g>
</svg>
