<?xml version="1.0" encoding="iso-8859-1"?>
<!-- Generator: Adobe Illustrator 19.0.0, SVG Export Plug-In . SVG Version: 6.00 Build 0)  -->
<svg version="1.1" id="Layer_1" xmlns="http://www.w3.org/2000/svg" xmlns:xlink="http://www.w3.org/1999/xlink" x="0px" y="0px"
	 viewBox="0 0 297 297" style="enable-background:new 0 0 297 297;" xml:space="preserve">
<g>
	<g>
		<g>
			<circle style="fill:#B85627;" cx="148.5" cy="148.5" r="148.5"/>
		</g>
	</g>
	<path style="fill:#933615;" d="M197.595,61.632L92.52,237.499l59.457,59.457c76.373-1.755,138.493-61.167,144.535-136.407
		L197.595,61.632z"/>
	<g>
		<path style="fill:#F4AF30;" d="M116.667,247.5h63.666c18.87,0,34.167-15.297,34.167-34.167v-96.666
			c0-18.87-15.297-34.167-34.167-34.167h-63.666c-18.87,0-34.167,15.297-34.167,34.167v96.666
			C82.5,232.203,97.797,247.5,116.667,247.5z"/>
	</g>
	<g>
		<path style="fill:#DD992A;" d="M180.333,82.5h-32.666v165h32.666c18.87,0,34.167-15.297,34.167-34.167v-96.666
			C214.5,97.797,199.203,82.5,180.333,82.5z"/>
	</g>
	<g>
		<path style="fill:#ECF0F1;" d="M190.833,198h-84.667c-3.958,0-7.166-3.209-7.166-7.167v-51.667c0-3.958,3.209-7.167,7.166-7.167
			h84.667c3.958,0,7.167,3.209,7.167,7.167v51.667C198,194.791,194.791,198,190.833,198z"/>
	</g>
	<g>
		<path style="fill:#DCDFE0;" d="M190.833,132h-43.166v66h43.166c3.958,0,7.167-3.208,7.167-7.167v-51.667
			C198,135.208,194.792,132,190.833,132z"/>
	</g>
	<g>
		<polygon style="fill:#E67E22;" points="130.5,160.191 123.75,148.5 130.5,136.809 144,136.809 150.75,148.5 144,160.191 		"/>
	</g>
	<g>
		<polygon style="fill:#E67E22;" points="155,173.191 148.25,161.5 155,149.809 168.5,149.809 175.25,161.5 168.5,173.191 		"/>
	</g>
	<g>
		<polygon style="fill:#E67E22;" points="131,188.383 124.25,176.691 131,165 144.5,165 151.25,176.691 144.5,188.383 		"/>
	</g>
	<g>
		<path style="fill:#794C2B;" d="M103.229,85.125h90.543c2.888,0,5.229-2.341,5.229-5.229V65.104c0-2.888-2.341-5.229-5.229-5.229
			h-90.543c-2.888,0-5.229,2.341-5.229,5.229v14.793C98,82.784,100.341,85.125,103.229,85.125z"/>
	</g>
	<g>
		<path style="fill:#6D4326;" d="M193.771,59.875h-46.104v25.25h46.104c2.888,0,5.229-2.341,5.229-5.229V65.104
			C199,62.216,196.659,59.875,193.771,59.875z"/>
	</g>
</g>
<g>
</g>
<g>
</g>
<g>
</g>
<g>
</g>
<g>
</g>
<g>
</g>
<g>
</g>
<g>
</g>
<g>
</g>
<g>
</g>
<g>
</g>
<g>
</g>
<g>
</g>
<g>
</g>
<g>
</g>
</svg>
