<?xml version="1.0" encoding="iso-8859-1"?>
<!-- Generator: Adobe Illustrator 19.0.0, SVG Export Plug-In . SVG Version: 6.00 Build 0)  -->
<svg version="1.1" id="Layer_1" xmlns="http://www.w3.org/2000/svg" xmlns:xlink="http://www.w3.org/1999/xlink" x="0px" y="0px"
	 viewBox="0 0 297.001 297.001" style="enable-background:new 0 0 297.001 297.001;" xml:space="preserve">
<g>
	<g>
		<g>
			<circle style="fill:#5E4534;" cx="148.501" cy="148.5" r="148.5"/>
		</g>
	</g>
	<path style="fill:#503B2C;" d="M204.749,56.767L88.357,240.95l55.99,55.99c1.38,0.038,2.764,0.061,4.153,0.061
		c81.841,0,148.214-66.207,148.493-147.982L204.749,56.767z"/>
	<g>
		<path style="fill:#D95459;" d="M103.667,247.5h89.666c11.69,0,21.167-9.477,21.167-21.167V103.667
			c0-11.69-9.477-21.167-21.167-21.167h-89.666c-11.69,0-21.167,9.477-21.167,21.167v122.666
			C82.501,238.023,91.977,247.5,103.667,247.5z"/>
	</g>
	<g>
		<path style="fill:#B73D46;" d="M193.333,82.5h-44.499v165h44.499c11.69,0,21.167-9.477,21.167-21.167V103.667
			C214.501,91.977,205.023,82.5,193.333,82.5z"/>
	</g>
	<g>
		<path style="fill:#ECF0F1;" d="M190.833,198h-84.667c-3.958,0-7.166-3.209-7.166-7.167v-51.667c0-3.958,3.209-7.167,7.166-7.167
			h84.667c3.958,0,7.167,3.209,7.167,7.167v51.667C198.001,194.791,194.792,198,190.833,198z"/>
	</g>
	<g>
		<path style="fill:#D6D8D8;" d="M190.833,132h-41.999v66h41.999c3.958,0,7.167-3.208,7.167-7.167v-51.667
			C198.001,135.208,194.792,132,190.833,132z"/>
	</g>
	<g>
		<path style="fill:#C63C22;" d="M132.001,165c0-9.113,7.387-12.5,16.5-12.5s16.5,3.387,16.5,12.5s-7.387,22.5-16.5,22.5
			S132.001,174.113,132.001,165z"/>
	</g>
	<g>
		<path style="fill:#AF3120;" d="M165.001,165c0-9-7.209-12.409-16.166-12.492v34.977C157.793,187.163,165.001,174.001,165.001,165z
			"/>
	</g>
	<g>
		<path style="fill:#BDC3C7;" d="M202.148,80.457l24.92,12.46c4.136,2.068,3.543,8.135-0.913,9.372
			c-21.882,6.076-73.859,15.457-153.254-0.844c-4.696-0.964-5.544-7.313-1.256-9.457l23.063-11.531H202.148z"/>
	</g>
	<g>
		<path style="fill:#ABB3B7;" d="M227.068,92.917l-24.92-12.46h-53.314v29.976c37.425,0.887,63.439-4.289,77.321-8.144
			C230.611,101.052,231.204,94.985,227.068,92.917z"/>
	</g>
	<g>
		<path style="fill:#ECF0F1;" d="M96.506,84h103.99c3.317,0,6.005-2.689,6.005-6.005v-16.99c0-3.317-2.689-6.005-6.005-6.005H96.506
			c-3.317,0-6.005,2.689-6.005,6.005v16.99C90.501,81.311,93.189,84,96.506,84z"/>
	</g>
	<g>
		<path style="fill:#E0E0E0;" d="M200.495,55h-51.661v29h51.661c3.317,0,6.005-2.689,6.005-6.005v-16.99
			C206.501,57.689,203.812,55,200.495,55z"/>
	</g>
	<g>
		<path style="fill:#27AE60;" d="M147.227,156.037c-0.211-2.753,0.077-13.035,15.655-15.674c0.489-0.083,0.934,0.307,0.915,0.802
			c-0.142,3.605-1.65,16.233-15.821,15.592C147.581,156.74,147.256,156.429,147.227,156.037z"/>
	</g>
	<g>
		<path style="fill:#345F41;" d="M148.49,156.728c0.112-2.24-0.432-9.146-11.051-11.057c-0.496-0.089-0.944,0.316-0.914,0.819
			c0.172,2.904,1.506,11.306,11.211,10.982C148.141,157.458,148.469,157.132,148.49,156.728z"/>
	</g>
</g>
<g>
</g>
<g>
</g>
<g>
</g>
<g>
</g>
<g>
</g>
<g>
</g>
<g>
</g>
<g>
</g>
<g>
</g>
<g>
</g>
<g>
</g>
<g>
</g>
<g>
</g>
<g>
</g>
<g>
</g>
</svg>
