<?xml version="1.0" encoding="iso-8859-1"?>
<!-- Generator: Adobe Illustrator 19.0.0, SVG Export Plug-In . SVG Version: 6.00 Build 0)  -->
<svg version="1.1" id="Layer_1" xmlns="http://www.w3.org/2000/svg" xmlns:xlink="http://www.w3.org/1999/xlink" x="0px" y="0px"
	 viewBox="0 0 297 297" style="enable-background:new 0 0 297 297;" xml:space="preserve">
<g>
	<g>
		<g>
			<circle style="fill:#E67E22;" cx="148.5" cy="148.5" r="148.5"/>
		</g>
	</g>
	<path style="fill:#AD481C;" d="M181.5,66L99,247.5l49.5,49.5c71.747,0,131.609-50.881,145.473-118.527L181.5,66z"/>
	<g>
		<rect x="115.5" y="66" style="fill:#FFCD02;" width="66" height="16.5"/>
	</g>
	<g>
		<rect x="148.167" y="66" style="fill:#EAC00F;" width="33.333" height="16.5"/>
	</g>
	<g>
		<polygon style="fill:#FFCD02;" points="99,247.5 198,247.5 198,97.75 181.5,94.25 115.5,94.25 99,97.75 		"/>
	</g>
	<g>
		<polygon style="fill:#EAC00F;" points="198,97.75 181.5,94.25 148.167,94.25 148.167,247.5 198,247.5 		"/>
	</g>
	<g>
		<path style="fill:#D35400;" d="M127.667,214.5h41.667c6.719,0,12.167-5.447,12.167-12.167v-41.667
			c0-6.719-5.447-12.167-12.167-12.167h-41.667c-6.719,0-12.166,5.447-12.166,12.167v41.667
			C115.5,209.053,120.947,214.5,127.667,214.5z"/>
	</g>
	<g>
		<path style="fill:#B54406;" d="M169.334,148.5h-21.167v66h21.167c6.719,0,12.167-5.447,12.167-12.167v-41.667
			C181.5,153.947,176.053,148.5,169.334,148.5z"/>
	</g>
	<g>
		<polygon style="fill:#ECF0F1;" points="99,97.75 198,97.75 181.5,81.25 115.5,81.25 		"/>
	</g>
	<g>
		<polygon style="fill:#D0D6D8;" points="181.5,81.25 148.167,81.25 148.167,97.75 198,97.75 		"/>
	</g>
	<g>
		<path style="fill:#79302A;" d="M147.5,91.5c-0.896,0-1.791-0.342-2.475-1.025L113.05,58.5H81.5c-1.933,0-3.5-1.567-3.5-3.5
			s1.567-3.5,3.5-3.5h34.45l34.024,34.025c1.367,1.366,1.367,3.583,0,4.949C149.291,91.158,148.396,91.5,147.5,91.5z"/>
	</g>
</g>
<g>
</g>
<g>
</g>
<g>
</g>
<g>
</g>
<g>
</g>
<g>
</g>
<g>
</g>
<g>
</g>
<g>
</g>
<g>
</g>
<g>
</g>
<g>
</g>
<g>
</g>
<g>
</g>
<g>
</g>
</svg>
