<?xml version="1.0" encoding="iso-8859-1"?>
<!-- Generator: Adobe Illustrator 19.0.0, SVG Export Plug-In . SVG Version: 6.00 Build 0)  -->
<svg version="1.1" id="Layer_1" xmlns="http://www.w3.org/2000/svg" xmlns:xlink="http://www.w3.org/1999/xlink" x="0px" y="0px"
	 viewBox="0 0 297 297" style="enable-background:new 0 0 297 297;" xml:space="preserve">
<g>
	<g>
		<g>
			<circle style="fill:#FFA800;" cx="148.5" cy="148.5" r="148.5"/>
		</g>
	</g>
	<path style="fill:#CE8400;" d="M187.844,85.988l-78.317,174.97l36.041,36.005c0.976,0.019,1.952,0.037,2.932,0.037
		c67.829,0,125.034-45.477,142.794-107.603L187.844,85.988z"/>
	<g>
		<path style="fill:#C0392B;" d="M144.892,22.124L132,73.693h33l-12.892-51.569C151.169,18.368,145.831,18.368,144.892,22.124z"/>
	</g>
	<g>
		<path style="fill:#9E231D;" d="M152.108,22.124c-0.503-2.011-2.266-2.935-3.941-2.792v54.361H165L152.108,22.124z"/>
	</g>
	<g>
		<path style="fill:#FFFFFF;" d="M115.5,83.75h66V71.709c0-2.462-1.996-4.459-4.458-4.459h-57.083c-2.462,0-4.458,1.996-4.458,4.459
			L115.5,83.75L115.5,83.75z"/>
	</g>
	<g>
		<path style="fill:#E3E5E4;" d="M181.5,71.708c0-2.462-1.996-4.458-4.458-4.458h-28.875v16.5H181.5V71.708z"/>
	</g>
	<g>
		<path style="fill:#C63C22;" d="M116.292,264h64.417c4.993,0,9.042-4.048,9.042-9.042V91.541c0-4.993-4.048-9.041-9.042-9.041
			h-64.417c-4.993,0-9.041,4.048-9.041,9.041v163.417C107.25,259.952,111.298,264,116.292,264z"/>
	</g>
	<g>
		<path style="fill:#9E231D;" d="M180.709,82.5h-32.542V264h32.542c4.993,0,9.042-4.048,9.042-9.042V91.542
			C189.75,86.548,185.702,82.5,180.709,82.5z"/>
	</g>
	<g>
		<rect x="115.5" y="148.5" style="fill:#FFFFFF;" width="66" height="49.5"/>
	</g>
	<g>
		<rect x="148.167" y="148.5" style="fill:#E3E5E4;" width="33.333" height="49.5"/>
	</g>
</g>
<g>
</g>
<g>
</g>
<g>
</g>
<g>
</g>
<g>
</g>
<g>
</g>
<g>
</g>
<g>
</g>
<g>
</g>
<g>
</g>
<g>
</g>
<g>
</g>
<g>
</g>
<g>
</g>
<g>
</g>
</svg>
