<?xml version="1.0" encoding="iso-8859-1"?>
<!-- Generator: Adobe Illustrator 19.0.0, SVG Export Plug-In . SVG Version: 6.00 Build 0)  -->
<svg version="1.1" id="Layer_1" xmlns="http://www.w3.org/2000/svg" xmlns:xlink="http://www.w3.org/1999/xlink" x="0px" y="0px"
	 viewBox="0 0 297 297" style="enable-background:new 0 0 297 297;" xml:space="preserve">
<g>
	<g>
		<g>
			<circle style="fill:#79302A;" cx="148.5" cy="148.5" r="148.5"/>
		</g>
	</g>
	<path style="fill:#591B18;" d="M242.233,104.246L60.322,175.135L179.037,293.85c64.148-13.409,113.083-68.208,117.61-135.19
		L242.233,104.246z"/>
	<g>
		<path style="fill:#FFA800;" d="M242.233,104.246c-2.221-2.221-6.58-1.601-10.563,1.214
			c-23.478-17.399-62.069-10.572-89.646,17.006s-34.404,66.168-17.005,89.646c-2.815,3.982-3.435,8.342-1.214,10.563
			s6.58,1.601,10.563-1.214c23.478,17.399,62.069,10.572,89.646-17.006s34.404-66.168,17.005-89.646
			C243.834,110.827,244.454,106.467,242.233,104.246z"/>
	</g>
	<g>
		<path style="fill:#FFCD02;" d="M157.726,74.696c19.058,30.721,9.604,71.074-21.116,90.133s-71.074,9.604-90.133-21.116
			L157.726,74.696z"/>
	</g>
	<g>
		<polygon style="fill:#FFCD02;" points="103.187,108.531 103.148,108.555 103.209,108.567 		"/>
	</g>
	<path style="fill:#D38E05;" d="M102.224,176.674c-4.952,0-9.936-0.548-14.878-1.657c-0.521-0.116-0.974-0.437-1.257-0.889
		c-0.284-0.452-0.375-0.999-0.253-1.519l15.075-64.331c0.121-0.517,0.442-0.965,0.894-1.244l0.29-0.18
		c0.438-0.271,0.962-0.366,1.464-0.257l0.061,0.013c0.548,0.114,1.022,0.454,1.309,0.935l33.434,56.24
		c0.553,0.93,0.267,2.13-0.645,2.71C126.883,173.217,114.655,176.674,102.224,176.674z M90.198,171.525
		c15.07,2.89,30.445,0.285,43.708-7.407l-30.105-50.641L90.198,171.525z"/>
	<g>
		<path style="fill:#E59303;" d="M241.019,114.809c2.815-3.982,3.435-8.342,1.214-10.563s-6.58-1.601-10.563,1.214
			c-21.782-16.142-56.568-11.418-83.503,11.37v111.612c23.045,7.322,53.167-1.308,75.846-23.988
			C251.591,176.878,258.417,138.287,241.019,114.809z"/>
	</g>
	<path style="fill:#FFCD02;" d="M157.726,74.696l-54.539,33.835l0.022,0.036l-0.06-0.012l-0.29,0.18l-56.381,34.978
		c9.648,15.552,24.756,25.642,41.306,29.353c16.143,3.62,33.658,1.173,48.827-8.237c0.011-0.007,0.021-0.014,0.033-0.021
		c16.206-10.067,26.48-26.064,29.772-43.442C169.357,105.83,166.719,89.191,157.726,74.696z"/>
	<path style="fill:#E8BC03;" d="M157.726,74.696l-9.559,5.93v75.081c9.591-9.486,15.821-21.535,18.247-34.342
		C169.357,105.83,166.719,89.191,157.726,74.696z"/>
	<path style="fill:#D38E05;" d="M36.152,147.765c-0.938,0.582-1.228,1.814-0.645,2.754c11.035,17.788,28.337,30.214,48.718,34.988
		c5.986,1.402,12.025,2.096,18.024,2.096c14.424,0,28.602-4.009,41.166-11.804c36.72-22.78,48.061-71.188,25.28-107.909
		c-0.279-0.45-0.727-0.771-1.243-0.893c-0.515-0.121-1.06-0.032-1.511,0.248L36.152,147.765z M152.404,80.351
		c6.584,11.457,9.025,24.575,7.032,37.561l-50.948-10.316L152.404,80.351z M158.7,121.844c-0.044,0.197-0.077,0.394-0.123,0.59
		c-3.368,14.374-11.886,26.67-24.072,34.864l-27.272-45.876L158.7,121.844z M103.801,113.477l27.308,45.937
		c-12.414,7.178-26.477,9.248-39.661,6.777L103.801,113.477z M87.547,165.308c-13.333-3.456-25.457-11.619-33.637-23.853
		l45.9-28.475L87.547,165.308z"/>
	<path style="fill:#BA7802;" d="M168.696,67.89c-0.279-0.45-0.727-0.771-1.243-0.893c-0.515-0.121-1.06-0.032-1.511,0.248
		l-17.775,11.028v4.707l4.237-2.629c6.584,11.457,9.025,24.575,7.032,37.561l-11.269-2.282v4.081l10.533,2.133
		c-0.044,0.197-0.077,0.394-0.123,0.59c-1.907,8.14-5.469,15.611-10.41,22.051v28.092C181.063,148.699,190.459,102.97,168.696,67.89
		z"/>
</g>
<g>
</g>
<g>
</g>
<g>
</g>
<g>
</g>
<g>
</g>
<g>
</g>
<g>
</g>
<g>
</g>
<g>
</g>
<g>
</g>
<g>
</g>
<g>
</g>
<g>
</g>
<g>
</g>
<g>
</g>
</svg>
