<?xml version="1.0" encoding="iso-8859-1"?>
<!-- Generator: Adobe Illustrator 19.0.0, SVG Export Plug-In . SVG Version: 6.00 Build 0)  -->
<svg version="1.1" id="Layer_1" xmlns="http://www.w3.org/2000/svg" xmlns:xlink="http://www.w3.org/1999/xlink" x="0px" y="0px"
	 viewBox="0 0 297 297" style="enable-background:new 0 0 297 297;" xml:space="preserve">
<g>
	<g>
		<g>
			<circle style="fill:#345F41;" cx="148.5" cy="148.5" r="148.5"/>
		</g>
	</g>
	<path style="fill:#2D5036;" d="M241.381,101.424L86.914,254.29l41.328,41.328c6.625,0.904,13.385,1.381,20.258,1.381
		c79.228,0,143.958-62.047,148.265-140.199L241.381,101.424z"/>
	<g>
		<path style="fill:#6AAC4B;" d="M94.507,227.471c2.062-2.062,3.454-4.691,3.993-7.556c3.544-18.83,18.731-92.559,40.213-98.155
			c24.644-6.42,30.028-2.899,41.004-20.502c10.976-17.602,44.628-16.257,61.506,0c16.257,16.878,17.602,50.53,0,61.506
			s-14.082,16.36-20.502,41.004c-5.596,21.482-79.325,36.669-98.155,40.213c-2.866,0.539-5.494,1.931-7.556,3.993l-7.049,7.049
			c-5.661,5.661-14.84,5.661-20.502,0l0,0c-5.661-5.661-5.661-14.84,0-20.502L94.507,227.471z"/>
	</g>
	<g>
		<path style="fill:#86C867;" d="M70.816,218.46c0.665-2.839,0.463-5.807-0.589-8.526c-6.913-17.87-32.867-88.532-17.561-104.609
			c17.559-18.444,23.99-18.291,24.04-39.035s29.357-37.337,52.269-32.418c22.711,5.775,41.591,33.664,32.418,52.269
			c-9.174,18.605-3.345,21.325,4.189,45.652c6.567,21.205-48.086,72.972-62.22,85.908c-2.151,1.969-3.651,4.537-4.317,7.376
			l-2.275,9.705c-1.827,7.795-9.628,12.633-17.423,10.806l0,0c-7.795-1.827-12.633-9.628-10.806-17.423L70.816,218.46z"/>
	</g>
	<g>
		<path style="fill:#5D993D;" d="M241.222,101.258c-16.878-16.257-50.53-17.602-61.506,0c-9.313,14.936-14.606,14.666-31.05,18.163
			v118.943c28.742-6.947,68.028-19.143,72.053-34.597c6.42-24.644,2.899-30.028,20.502-41.004
			C258.824,151.788,257.479,118.136,241.222,101.258z"/>
	</g>
	<g>
		<path style="fill:#78AF5B;" d="M165.581,131.792c-7.533-24.326-13.363-27.047-4.189-45.652
			c6.261-12.699-0.551-29.718-12.725-41.083v124.905C160.141,155.271,168.366,140.784,165.581,131.792z"/>
	</g>
	<g>
		<path style="fill:#6AAC4B;" d="M81.503,239.269c-0.304,0-0.613-0.035-0.922-0.108c-2.15-0.507-3.481-2.661-2.974-4.812
			l37.549-159.053c0.507-2.149,2.657-3.485,4.812-2.974c2.15,0.507,3.481,2.661,2.974,4.812L85.393,236.187
			C84.958,238.027,83.316,239.269,81.503,239.269z"/>
	</g>
	<g>
		<path style="fill:#BFF796;" d="M95.5,251.5c-1.021,0-2.042-0.389-2.822-1.165c-1.565-1.559-1.571-4.092-0.013-5.657
			l114.97-115.489c1.558-1.566,4.092-1.569,5.657-0.013c1.565,1.559,1.571,4.092,0.013,5.657L98.335,250.322
			C97.554,251.107,96.526,251.5,95.5,251.5z"/>
	</g>
	<g>
		<path style="fill:#A6E079;" d="M213.292,129.176c-1.565-1.557-4.1-1.554-5.657,0.013l-58.968,59.234v11.34l64.638-64.93
			C214.863,133.268,214.857,130.734,213.292,129.176z"/>
	</g>
</g>
<g>
</g>
<g>
</g>
<g>
</g>
<g>
</g>
<g>
</g>
<g>
</g>
<g>
</g>
<g>
</g>
<g>
</g>
<g>
</g>
<g>
</g>
<g>
</g>
<g>
</g>
<g>
</g>
<g>
</g>
</svg>
