<?xml version="1.0" encoding="iso-8859-1"?>
<!-- Generator: Adobe Illustrator 19.0.0, SVG Export Plug-In . SVG Version: 6.00 Build 0)  -->
<svg version="1.1" id="Layer_1" xmlns="http://www.w3.org/2000/svg" xmlns:xlink="http://www.w3.org/1999/xlink" x="0px" y="0px"
	 viewBox="0 0 297 297" style="enable-background:new 0 0 297 297;" xml:space="preserve">
<g>
	<g>
		<g>
			<circle style="fill:#394C81;" cx="148.5" cy="148.5" r="148.5"/>
		</g>
	</g>
	<path style="fill:#2C3E50;" d="M181.5,34.25L99,247.5l49.5,49.5c81.602,0,147.82-65.821,148.484-147.266L181.5,34.25z"/>
	<g>
		<rect x="115.5" y="34.25" style="fill:#99ABD5;" width="66" height="16.5"/>
	</g>
	<g>
		<rect x="148.167" y="34.25" style="fill:#8A9CC1;" width="33.333" height="16.5"/>
	</g>
	<g>
		<polygon style="fill:#B8C9F1;" points="99,247.5 198,247.5 198,66 181.5,62.5 115.5,62.5 99,66 		"/>
	</g>
	<g>
		<polygon style="fill:#99ABD5;" points="198,66 181.5,62.5 148.167,62.5 148.167,247.5 198,247.5 		"/>
	</g>
	<g>
		<path style="fill:#3498DB;" d="M130.667,214.5h35.667c8.376,0,15.167-6.79,15.167-15.167v-35.667
			c0-8.376-6.79-15.167-15.167-15.167h-35.667c-8.376,0-15.167,6.79-15.167,15.167v35.667C115.5,207.71,122.29,214.5,130.667,214.5z
			"/>
	</g>
	<g>
		<path style="fill:#2980B9;" d="M166.334,148.5h-18.167v66h18.167c8.376,0,15.167-6.79,15.167-15.167v-35.667
			C181.5,155.29,174.71,148.5,166.334,148.5z"/>
	</g>
	<g>
		<polygon style="fill:#ECF0F1;" points="99,66 198,66 181.5,49.5 115.5,49.5 		"/>
	</g>
	<g>
		<polygon style="fill:#D0D6D8;" points="181.5,49.5 148.167,49.5 148.167,66 198,66 		"/>
	</g>
</g>
<g>
</g>
<g>
</g>
<g>
</g>
<g>
</g>
<g>
</g>
<g>
</g>
<g>
</g>
<g>
</g>
<g>
</g>
<g>
</g>
<g>
</g>
<g>
</g>
<g>
</g>
<g>
</g>
<g>
</g>
</svg>
