<?xml version="1.0" encoding="iso-8859-1"?>
<!-- Generator: Adobe Illustrator 19.0.0, SVG Export Plug-In . SVG Version: 6.00 Build 0)  -->
<svg version="1.1" id="Layer_1" xmlns="http://www.w3.org/2000/svg" xmlns:xlink="http://www.w3.org/1999/xlink" x="0px" y="0px"
	 viewBox="0 0 297 297" style="enable-background:new 0 0 297 297;" xml:space="preserve">
<g>
	<g>
		<g>
			<circle style="fill:#A5C63B;" cx="148.5" cy="148.5" r="148.5"/>
		</g>
	</g>
	<path style="fill:#889920;" d="M220.454,98.714L85.914,222.923l73.665,73.666c68.577-5.058,124.193-56.687,135.364-123.383
		L220.454,98.714z"/>
	<g>
		<path style="fill:#2F7F40;" d="M128.396,226.172l-19.794,4.336c-15.083,3.304-29.466-9.208-32.126-27.948l-10.051-70.82
			c-2.66-18.739,7.412-36.609,22.495-39.914l19.794-4.336c15.083-3.304,29.466,9.208,32.126,27.948l10.051,70.82
			C153.551,204.998,143.479,222.868,128.396,226.172z"/>
	</g>
	<g>
		<path style="fill:#2F7F40;" d="M168.604,226.172l19.794,4.336c15.083,3.304,29.466-9.208,32.126-27.948l10.051-70.82
			c2.66-18.739-7.412-36.609-22.495-39.914l-19.794-4.336c-15.083-3.304-29.466,9.208-32.126,27.948l-10.051,70.82
			C143.449,204.998,153.521,222.868,168.604,226.172z"/>
	</g>
	<g>
		<path style="fill:#23442C;" d="M148.5,105.002c-0.665,0-1.341-0.111-2.003-0.346c-3.123-1.106-4.759-4.535-3.653-7.659
			c10.456-29.53-12.578-41.647-13.564-42.149c-2.953-1.502-4.13-5.114-2.627-8.068c1.501-2.953,5.111-4.13,8.068-2.627
			c11.596,5.898,30.581,25.371,19.436,56.851C153.284,103.464,150.971,105.002,148.5,105.002z"/>
	</g>
	<g>
		<path style="fill:#345F41;" d="M155.745,231h-14.49c-18.002,0-32.596-14.594-32.596-32.596v-83.307
			c0-18.002,14.594-32.596,32.596-32.596h14.49c18.002,0,32.596,14.594,32.596,32.596v83.307
			C188.341,216.406,173.748,231,155.745,231z"/>
	</g>
	<g>
		<path style="fill:#2D5036;" d="M155.745,82.5h-6.078V231h6.078c18.002,0,32.596-14.594,32.596-32.596v-83.308
			C188.342,97.094,173.748,82.5,155.745,82.5z"/>
	</g>
</g>
<g>
</g>
<g>
</g>
<g>
</g>
<g>
</g>
<g>
</g>
<g>
</g>
<g>
</g>
<g>
</g>
<g>
</g>
<g>
</g>
<g>
</g>
<g>
</g>
<g>
</g>
<g>
</g>
<g>
</g>
</svg>
