<?xml version="1.0" encoding="iso-8859-1"?>
<!-- Generator: Adobe Illustrator 19.0.0, SVG Export Plug-In . SVG Version: 6.00 Build 0)  -->
<svg version="1.1" id="Layer_1" xmlns="http://www.w3.org/2000/svg" xmlns:xlink="http://www.w3.org/1999/xlink" x="0px" y="0px"
	 viewBox="0 0 297 297" style="enable-background:new 0 0 297 297;" xml:space="preserve">
<g>
	<g>
		<g>
			<circle style="fill:#4F2B4F;" cx="148.5" cy="148.5" r="148.5"/>
		</g>
	</g>
	<path style="fill:#462147;" d="M259.98,152.627l-222.351,7.328l135.19,135.052c58.367-9.617,105.26-53.258,119.624-109.881
		L259.98,152.627z"/>
	<g>
		<path style="fill:#EF9789;" d="M247.5,152.726c0,13.522-44.324,12.242-99,12.242s-99,1.28-99-12.242s44.324-41.226,99-41.226
			S247.5,139.204,247.5,152.726z"/>
	</g>
	<g>
		<path style="fill:#EF717A;" d="M148.5,111.5c-0.028,0-0.055,0.001-0.083,0.001v53.467c0.028,0,0.055,0,0.083,0
			c54.676,0,99,1.28,99-12.242S203.176,111.5,148.5,111.5z"/>
	</g>
	<g>
		<path style="fill:#9B59B6;" d="M77.786,184.643h141.429c15.622,0,28.286-12.664,28.286-28.286l0,0h-198l0,0
			C49.5,171.979,62.164,184.643,77.786,184.643z"/>
	</g>
	<g>
		<path style="fill:#D95459;" d="M49.5,165.357c0,0,185,0,198,0c6.272,0,10.332-3.225,12.856-6.564
			c2.244-2.969,0.343-7.245-3.361-7.608c-12.614-1.235-14.915-5.685-31.492-5.685c-19.249,0-19.249,6-38.498,6
			c-19.25,0-19.25-6-38.5-6c-19.249,0-19.249,6-38.498,6c-19.252,0-19.252-6-38.504-6c-16.6,0-18.887,4.461-31.543,5.69
			c-3.789,0.368-5.686,4.837-3.243,7.757C39.158,161.864,43.126,164.68,49.5,165.357z"/>
	</g>
	<g>
		<path style="fill:#C64751;" d="M175.771,131.75c0.834,2.908,3.867,4.589,6.775,3.755l1.005-0.288
			c2.908-0.834,4.589-3.867,3.755-6.775l-3.782-13.191c-4.248-0.912-8.635-1.684-13.139-2.285L175.771,131.75z"/>
	</g>
	<g>
		<path style="fill:#D95459;" d="M148.5,111.5c-2.185,0-4.351,0.049-6.5,0.135V129.5c0,3.59,2.91,6.5,6.5,6.5s6.5-2.91,6.5-6.5
			v-17.865C152.851,111.549,150.685,111.5,148.5,111.5z"/>
	</g>
	<g>
		<path style="fill:#8E44AD;" d="M148.417,156.357v28.286h70.797c15.622,0,28.286-12.664,28.286-28.286l0,0H148.417z"/>
	</g>
	<g>
		<path style="fill:#C64751;" d="M256.995,151.185c-12.614-1.235-14.915-5.685-31.492-5.685c-19.249,0-19.249,6-38.498,6
			c-19.25,0-19.25-6-38.5-6c-0.03,0-0.058,0.001-0.089,0.001v19.856c46.336,0,92.8,0,99.083,0c6.272,0,10.332-3.225,12.856-6.564
			C262.6,155.824,260.699,151.548,256.995,151.185z"/>
	</g>
	<g>
		<path style="fill:#C64751;" d="M148.5,111.5c-0.028,0-0.055,0.001-0.083,0.001v24.495c0.028,0,0.055,0.004,0.083,0.004
			c3.59,0,6.5-2.91,6.5-6.5v-17.865C152.851,111.549,150.685,111.5,148.5,111.5z"/>
	</g>
	<g>
		<path style="fill:#D95459;" d="M113.477,115.251l-3.782,13.191c-0.834,2.908,0.847,5.941,3.755,6.775l1.005,0.288
			c2.908,0.834,5.941-0.847,6.775-3.755l5.386-18.783C122.111,113.567,117.725,114.339,113.477,115.251z"/>
	</g>
</g>
<g>
</g>
<g>
</g>
<g>
</g>
<g>
</g>
<g>
</g>
<g>
</g>
<g>
</g>
<g>
</g>
<g>
</g>
<g>
</g>
<g>
</g>
<g>
</g>
<g>
</g>
<g>
</g>
<g>
</g>
</svg>
