<?xml version="1.0" encoding="iso-8859-1"?>
<!-- Generator: Adobe Illustrator 19.0.0, SVG Export Plug-In . SVG Version: 6.00 Build 0)  -->
<svg version="1.1" id="Layer_1" xmlns="http://www.w3.org/2000/svg" xmlns:xlink="http://www.w3.org/1999/xlink" x="0px" y="0px"
	 viewBox="0 0 297 297" style="enable-background:new 0 0 297 297;" xml:space="preserve">
<g>
	<g>
		<g>
			<circle style="fill:#D95459;" cx="148.5" cy="148.5" r="148.5"/>
		</g>
	</g>
	<path style="fill:#B23F47;" d="M293.375,115.777L254.618,77.02c-10.585,5.822-18.855,13.462-27.118,24.48c-2,3-6,4-10,6
		c-6,5-10,10-15,15c-14,12-26,24-41,34c-15,11-33,16-50,23c-20.147,9.299-41.494,11.396-62.647,15.591
		c-2.217,2.771,0.236,10.201-1.87,13.06l88.263,88.254c4.367,0.386,8.786,0.595,13.253,0.595c82.014,0,148.5-66.486,148.5-148.5
		C297,137.256,295.743,126.306,293.375,115.777z"/>
	<path style="fill:#662621;" d="M240.112,84.931c-12.538-4.967-27.214,2.14-35.135,14.025
		c-29.226,44.501-79.417,71.065-132.65,70.207c-12.915-0.121-25.705,6.526-30.212,17.532l-6.363-12.022
		c-0.666-1.258-2.521-1.083-2.94,0.277l-6.738,21.889c-0.419,1.361,1.016,2.548,2.275,1.882l12.322-6.522
		c-1.337,12.525,12.082,25.386,30.894,25.674c69.876,1.127,135.756-33.742,174.12-92.155
		C256.541,109.218,252.602,89.827,240.112,84.931z"/>
	<path style="fill:#541D1A;" d="M253.872,76.274l-21.889-6.738c-1.361-0.419-2.548,1.016-1.882,2.275l6.363,12.022
		c-11.635-2.463-24.323,4.375-31.487,15.123c-13.642,20.772-31.854,37.633-52.809,49.624v54.08
		c37.674-15.417,70.536-41.948,93.517-76.94c10.341-15.717,7.252-34.046-3.857-39.984l12.322-6.522
		C255.408,78.548,255.233,76.693,253.872,76.274z"/>
</g>
<g>
</g>
<g>
</g>
<g>
</g>
<g>
</g>
<g>
</g>
<g>
</g>
<g>
</g>
<g>
</g>
<g>
</g>
<g>
</g>
<g>
</g>
<g>
</g>
<g>
</g>
<g>
</g>
<g>
</g>
</svg>
