<?xml version="1.0" encoding="iso-8859-1"?>
<!-- Generator: Adobe Illustrator 19.0.0, SVG Export Plug-In . SVG Version: 6.00 Build 0)  -->
<svg version="1.1" id="Layer_1" xmlns="http://www.w3.org/2000/svg" xmlns:xlink="http://www.w3.org/1999/xlink" x="0px" y="0px"
	 viewBox="0 0 297 297" style="enable-background:new 0 0 297 297;" xml:space="preserve">
<g>
	<g>
		<g>
			<circle style="fill:#D95459;" cx="148.5" cy="148.5" r="148.5"/>
		</g>
	</g>
	<path style="fill:#B23F47;" d="M295.498,127.378L255.31,87.19l-8.99,8.183c4.294,4.714,6.912,10.981,6.912,17.86
		c0,14.654-11.879,26.533-26.533,26.533c-7.775,0-14.768-3.344-19.621-8.672L76.006,250.409l43.813,43.813
		C129.1,296.038,138.687,297,148.5,297c82.014,0,148.5-66.486,148.5-148.5C297,141.328,296.481,134.278,295.498,127.378z"/>
	<path style="fill:#F0DEB4;" d="M225.749,74.667c-10.686,0-20.422,4.063-27.749,10.729V49.5H70.532v187.178
		c0,11.022,8.935,19.957,19.957,19.957h87.554c11.022,0,19.957-8.935,19.957-19.957v-90.241
		c7.327,6.666,17.064,10.729,27.749,10.729c22.782,0,41.25-18.468,41.25-41.25S248.531,74.667,225.749,74.667z M225.749,136.542
		c-11.391,0-20.625-9.234-20.625-20.625s9.234-20.625,20.625-20.625s20.625,9.234,20.625,20.625S237.14,136.542,225.749,136.542z"/>
	<path style="fill:#E0C799;" d="M225.749,74.667c-10.686,0-20.422,4.063-27.749,10.729V49.5h-50.333v207.135h30.376
		c11.022,0,19.957-8.935,19.957-19.957v-90.241c7.327,6.666,17.064,10.729,27.749,10.729c22.782,0,41.25-18.468,41.25-41.25
		S248.531,74.667,225.749,74.667z M225.749,136.542c-11.391,0-20.625-9.234-20.625-20.625s9.234-20.625,20.625-20.625
		s20.625,9.234,20.625,20.625S237.14,136.542,225.749,136.542z"/>
	<g>
		<path style="fill:#5E4534;" d="M128.955,161.034H91.777c-2.933,0-5.311-2.378-5.311-5.311v-37.178
			c0-2.933,2.378-5.311,5.311-5.311h37.178c2.933,0,5.311,2.378,5.311,5.311v37.178
			C134.266,158.656,131.888,161.034,128.955,161.034z"/>
	</g>
	<g>
		<rect x="106.366" y="49.5" style="fill:#E67E22;" width="8" height="63.734"/>
	</g>
</g>
<g>
</g>
<g>
</g>
<g>
</g>
<g>
</g>
<g>
</g>
<g>
</g>
<g>
</g>
<g>
</g>
<g>
</g>
<g>
</g>
<g>
</g>
<g>
</g>
<g>
</g>
<g>
</g>
<g>
</g>
</svg>
