<?xml version="1.0" encoding="iso-8859-1"?>
<!-- Generator: Adobe Illustrator 19.0.0, SVG Export Plug-In . SVG Version: 6.00 Build 0)  -->
<svg version="1.1" id="Layer_1" xmlns="http://www.w3.org/2000/svg" xmlns:xlink="http://www.w3.org/1999/xlink" x="0px" y="0px"
	 viewBox="0 0 297 297" style="enable-background:new 0 0 297 297;" xml:space="preserve">
<g>
	<g>
		<g>
			<circle style="fill:#345F41;" cx="148.5" cy="148.5" r="148.5"/>
		</g>
	</g>
	<path style="fill:#2D5036;" d="M264,115.5L65.554,195.873l100.131,100.131C239.603,287.485,297,224.701,297,148.5L264,115.5z"/>
	<g>
		<path style="fill:#C63C22;" d="M247.5,115.5c0,54.676-44.324,99-99,99s-99-44.324-99-99H247.5z"/>
	</g>
	<g>
		<path style="fill:#32373B;" d="M113.25,134.5c0-2.485,2.015-8,4.5-8s4.5,5.515,4.5,8s-2.015,4.5-4.5,4.5
			S113.25,136.985,113.25,134.5z"/>
	</g>
	<g>
		<path style="fill:#B72F1D;" d="M247.5,115.5h-99v99C203.176,214.5,247.5,170.176,247.5,115.5z"/>
	</g>
	<g>
		<path style="fill:#32373B;" d="M82.5,134.5c0-2.485,2.015-8,4.5-8s4.5,5.515,4.5,8S89.485,139,87,139S82.5,136.985,82.5,134.5z"/>
	</g>
	<g>
		<path style="fill:#292D30;" d="M174.75,134.5c0-2.485,2.015-8,4.5-8s4.5,5.515,4.5,8s-2.015,4.5-4.5,4.5
			S174.75,136.985,174.75,134.5z"/>
	</g>
	<g>
		<path style="fill:#292D30;" d="M205.5,134.5c0-2.485,2.015-8,4.5-8s4.5,5.515,4.5,8s-2.015,4.5-4.5,4.5S205.5,136.985,205.5,134.5
			z"/>
	</g>
	<g>
		<path style="fill:#32373B;" d="M96.75,161.75c0-2.485,2.015-8,4.5-8s4.5,5.515,4.5,8s-2.015,4.5-4.5,4.5
			S96.75,164.235,96.75,161.75z"/>
	</g>
	<g>
		<path style="fill:#32373B;" d="M127.5,161.75c0-2.485,2.015-8,4.5-8s4.5,5.515,4.5,8s-2.015,4.5-4.5,4.5
			S127.5,164.235,127.5,161.75z"/>
	</g>
	<g>
		<path style="fill:#292D30;" d="M158.25,161.75c0-2.485,2.015-8,4.5-8s4.5,5.515,4.5,8s-2.015,4.5-4.5,4.5
			S158.25,164.235,158.25,161.75z"/>
	</g>
	<g>
		<path style="fill:#292D30;" d="M189,161.75c0-2.485,2.015-8,4.5-8s4.5,5.515,4.5,8s-2.015,4.5-4.5,4.5S189,164.235,189,161.75z"/>
	</g>
	<g>
		<path style="fill:#32373B;" d="M144,134.5c0-2.485,2.015-8,4.5-8s4.5,5.515,4.5,8s-2.015,4.5-4.5,4.5S144,136.985,144,134.5z"/>
	</g>
	<g>
		<path style="fill:#86C867;" d="M33,115.5C33,179.289,84.711,231,148.5,231S264,179.289,264,115.5h-24.75
			c0,50.12-40.63,90.75-90.75,90.75s-90.75-40.63-90.75-90.75H33z"/>
	</g>
	<g>
		<path style="fill:#78B259;" d="M264,115.5h-24.75c0,50.12-40.63,90.75-90.75,90.75V231C212.289,231,264,179.289,264,115.5z"/>
	</g>
	<g>
		<path style="fill:#292D30;" d="M153,134.5c0-2.485-2.015-7.999-4.5-8V139C150.985,139,153,136.985,153,134.5z"/>
	</g>
</g>
<g>
</g>
<g>
</g>
<g>
</g>
<g>
</g>
<g>
</g>
<g>
</g>
<g>
</g>
<g>
</g>
<g>
</g>
<g>
</g>
<g>
</g>
<g>
</g>
<g>
</g>
<g>
</g>
<g>
</g>
</svg>
